<svg aria-hidden="true" style="position: absolute; width: 0; height: 0; overflow: hidden;" version="1.1" xmlns="http://www.w3.org/2000/svg" xmlns:xlink="http://www.w3.org/1999/xlink">
<defs>
<symbol id="icon-arrow-down" viewBox="0 0 20 20">
<path d="M15.8333 7.08337L9.99996 12.9167L4.16663 7.08337" stroke="#130D21" stroke-opacity="0.5" stroke-width="1.5" stroke-linecap="round" stroke-linejoin="round"/>
</symbol>
<symbol id="icon-email" viewBox="0 0 20 20">
<path d="M17.9026 8.8512L13.4593 12.4642C12.6198 13.1302 11.4387 13.1302 10.5992 12.4642L6.11841 8.8512" stroke="#130D21" stroke-width="1.5" stroke-linecap="round" stroke-linejoin="round"/>
<path d="M17.9026 8.8512L13.4593 12.4642C12.6198 13.1302 11.4387 13.1302 10.5992 12.4642L6.11841 8.8512" stroke="#130D21" stroke-width="1.5" stroke-linecap="round" stroke-linejoin="round"/>
<path fill-rule="evenodd" clip-rule="evenodd" d="M16.9089 21C19.9502 21.0084 22 18.5095 22 15.4384V8.57001C22 5.49883 19.9502 3 16.9089 3H7.09114C4.04979 3 2 5.49883 2 8.57001V15.4384C2 18.5095 4.04979 21.0084 7.09114 21H16.9089Z" stroke="#130D21" stroke-width="1.5" stroke-linecap="round" stroke-linejoin="round"/>
</symbol>
<symbol id="icon-filter" viewBox="0 0 20 20">
<path fill-rule="evenodd" clip-rule="evenodd" d="M3.80431 2.5C3.08423 2.5 2.5 3.09405 2.5 3.82534V4.60537C2.5 5.14706 2.70599 5.66798 3.07446 6.05981L7.11258 10.3536L7.11436 10.3509C7.89393 11.149 8.33254 12.2279 8.33254 13.3528V17.1626C8.33254 17.4172 8.59891 17.5798 8.82 17.4597L11.1196 16.2066C11.4668 16.017 11.6834 15.6486 11.6834 15.2487V13.3428C11.6834 12.2242 12.1158 11.1499 12.8883 10.3536L16.9264 6.05981C17.294 5.66798 17.5 5.14706 17.5 4.60537V3.82534C17.5 3.09405 16.9167 2.5 16.1966 2.5H3.80431Z" stroke="#130D21" stroke-opacity="0.5" stroke-width="1.5" stroke-linecap="round" stroke-linejoin="round"/>
</symbol>
<symbol id="icon-paper-download" viewBox="0 0 20 20">
<path fill-rule="evenodd" clip-rule="evenodd" d="M14.7366 2.76187H8.08465C6.00465 2.75387 4.30065 4.41087 4.25065 6.49087V17.2279C4.20565 19.3299 5.87365 21.0699 7.97465 21.1149C8.01165 21.1149 8.04865 21.1159 8.08465 21.1149H16.0726C18.1626 21.0409 19.8146 19.3189 19.8026 17.2279V8.03787L14.7366 2.76187Z" stroke="#130D21" stroke-width="1.5" stroke-linecap="round" stroke-linejoin="round"/>
<path d="M14.4749 2.75012V5.65912C14.4749 7.07912 15.6239 8.23012 17.0439 8.23412H19.7979" stroke="#130D21" stroke-width="1.5" stroke-linecap="round" stroke-linejoin="round"/>
<path d="M11.6418 15.9498V9.90881" stroke="#130D21" stroke-width="1.5" stroke-linecap="round" stroke-linejoin="round"/>
<path d="M9.29614 13.5945L11.6411 15.9495L13.9861 13.5945" stroke="#130D21" stroke-width="1.5" stroke-linecap="round" stroke-linejoin="round"/>
</symbol>
<symbol id="icon-search" viewBox="0 0 20 20">
<circle cx="11.7666" cy="11.7666" r="8.98856" stroke="#130D21" stroke-opacity="0.25" stroke-width="1.5" stroke-linecap="round" stroke-linejoin="round"/>
<path d="M18.0183 18.4852L21.5423 22.0001" stroke="#130D21" stroke-opacity="0.25" stroke-width="1.5" stroke-linecap="round" stroke-linejoin="round"/>
</symbol>
<symbol id="icon-sign-in" viewBox="0 0 20 20">
<path d="M15.8125 12.0218H3.77148" stroke="white" stroke-width="1.5" stroke-linecap="round" stroke-linejoin="round"/>
<path d="M12.8848 9.1058L15.8128 12.0218L12.8848 14.9378" stroke="white" stroke-width="1.5" stroke-linecap="round" stroke-linejoin="round"/>
<path d="M8.50439 7.389V6.456C8.50439 4.421 10.1534 2.772 12.1894 2.772H17.0734C19.1034 2.772 20.7484 4.417 20.7484 6.447V17.587C20.7484 19.622 19.0984 21.272 17.0634 21.272H12.1784C10.1494 21.272 8.50439 19.626 8.50439 17.597V16.655" stroke="white" stroke-width="1.5" stroke-linecap="round" stroke-linejoin="round"/>
</symbol>
<symbol id="icon-sign-out" viewBox="0 0 20 20">
<path d="M15.016 7.38948V6.45648C15.016 4.42148 13.366 2.77148 11.331 2.77148H6.45597C4.42197 2.77148 2.77197 4.42148 2.77197 6.45648V17.5865C2.77197 19.6215 4.42197 21.2715 6.45597 21.2715H11.341C13.37 21.2715 15.016 19.6265 15.016 17.5975V16.6545" stroke="white" stroke-width="1.5" stroke-linecap="round" stroke-linejoin="round"/>
<path d="M21.8094 12.0214H9.76843" stroke="white" stroke-width="1.5" stroke-linecap="round" stroke-linejoin="round"/>
<path d="M18.8812 9.10632L21.8092 12.0213L18.8812 14.9373" stroke="white" stroke-width="1.5" stroke-linecap="round" stroke-linejoin="round"/>
</symbol>

<symbol id="icon-setting" viewBox="0 0 20 20">
<path fill-rule="evenodd" clip-rule="evenodd" d="M20.8067 7.62361L20.1842 6.54352C19.6577 5.6296 18.4907 5.31432 17.5755 5.83872V5.83872C17.1399 6.09534 16.6201 6.16815 16.1307 6.04109C15.6413 5.91402 15.2226 5.59752 14.9668 5.16137C14.8023 4.88415 14.7139 4.56839 14.7105 4.24604V4.24604C14.7254 3.72922 14.5304 3.2284 14.17 2.85767C13.8096 2.48694 13.3145 2.27786 12.7975 2.27808H11.5435C11.037 2.27807 10.5513 2.47991 10.194 2.83895C9.83669 3.19798 9.63717 3.68459 9.63961 4.19112V4.19112C9.6246 5.23693 8.77248 6.07681 7.72657 6.0767C7.40421 6.07336 7.08846 5.98494 6.81123 5.82041V5.82041C5.89606 5.29601 4.72911 5.61129 4.20254 6.52522L3.53435 7.62361C3.00841 8.53639 3.3194 9.70261 4.23 10.2323V10.2323C4.8219 10.574 5.18653 11.2056 5.18653 11.8891C5.18653 12.5725 4.8219 13.2041 4.23 13.5458V13.5458C3.32056 14.0719 3.00923 15.2353 3.53435 16.1454V16.1454L4.16593 17.2346C4.41265 17.6798 4.8266 18.0083 5.31619 18.1474C5.80578 18.2866 6.33064 18.2249 6.77462 17.976V17.976C7.21108 17.7213 7.73119 17.6516 8.21934 17.7822C8.70749 17.9128 9.12324 18.233 9.37416 18.6717C9.5387 18.9489 9.62711 19.2646 9.63046 19.587V19.587C9.63046 20.6435 10.487 21.5 11.5435 21.5H12.7975C13.8505 21.5001 14.7055 20.6491 14.7105 19.5962V19.5962C14.7081 19.088 14.9089 18.6 15.2682 18.2407C15.6275 17.8814 16.1155 17.6807 16.6236 17.6831C16.9452 17.6917 17.2596 17.7798 17.5389 17.9394V17.9394C18.4517 18.4653 19.6179 18.1544 20.1476 17.2438V17.2438L20.8067 16.1454C21.0618 15.7075 21.1318 15.186 21.0012 14.6964C20.8706 14.2067 20.5502 13.7894 20.111 13.5367V13.5367C19.6718 13.284 19.3514 12.8666 19.2208 12.3769C19.0902 11.8873 19.1603 11.3658 19.4154 10.928C19.5812 10.6383 19.8214 10.3982 20.111 10.2323V10.2323C21.0161 9.70289 21.3264 8.54349 20.8067 7.63277V7.63277V7.62361Z" stroke="#130D21" stroke-width="1.5" stroke-linecap="round" stroke-linejoin="round"/>
<circle cx="12.175" cy="11.8891" r="2.63616" stroke="#130D21" stroke-width="1.5" stroke-linecap="round" stroke-linejoin="round"/>
</symbol>

<symbol id="icon-settings" viewBox="0 0 20 20">
<path fill-rule="evenodd" clip-rule="evenodd" d="M18.8067 6.62361L18.1842 5.54352C17.6577 4.6296 16.4907 4.31432 15.5755 4.83872V4.83872C15.1399 5.09534 14.6201 5.16815 14.1307 5.04109C13.6413 4.91402 13.2226 4.59752 12.9668 4.16137C12.8023 3.88415 12.7139 3.56839 12.7105 3.24604V3.24604C12.7254 2.72922 12.5304 2.2284 12.17 1.85767C11.8096 1.48694 11.3145 1.27786 10.7975 1.27808H9.5435C9.03697 1.27807 8.55131 1.47991 8.194 1.83895C7.83669 2.19798 7.63717 2.68459 7.63961 3.19112V3.19112C7.6246 4.23693 6.77248 5.07681 5.72657 5.0767C5.40421 5.07336 5.08846 4.98494 4.81123 4.82041V4.82041C3.89606 4.29601 2.72911 4.61129 2.20254 5.52522L1.53435 6.62361C1.00841 7.53639 1.3194 8.70261 2.23 9.23231V9.23231C2.8219 9.57404 3.18653 10.2056 3.18653 10.8891C3.18653 11.5725 2.8219 12.2041 2.23 12.5458V12.5458C1.32056 13.0719 1.00923 14.2353 1.53435 15.1454V15.1454L2.16593 16.2346C2.41265 16.6798 2.8266 17.0083 3.31619 17.1474C3.80578 17.2866 4.33064 17.2249 4.77462 16.976V16.976C5.21108 16.7213 5.73119 16.6516 6.21934 16.7822C6.70749 16.9128 7.12324 17.233 7.37416 17.6717C7.5387 17.9489 7.62711 18.2646 7.63046 18.587V18.587C7.63046 19.6435 8.48696 20.5 9.5435 20.5H10.7975C11.8505 20.5001 12.7055 19.6491 12.7105 18.5962V18.5962C12.7081 18.088 12.9089 17.6 13.2682 17.2407C13.6275 16.8814 14.1155 16.6807 14.6236 16.6831C14.9452 16.6917 15.2596 16.7798 15.5389 16.9394V16.9394C16.4517 17.4653 17.6179 17.1544 18.1476 16.2438V16.2438L18.8067 15.1454C19.0618 14.7075 19.1318 14.186 19.0012 13.6964C18.8706 13.2067 18.5502 12.7894 18.111 12.5367V12.5367C17.6718 12.284 17.3514 11.8666 17.2208 11.3769C17.0902 10.8873 17.1603 10.3658 17.4154 9.92796C17.5812 9.63834 17.8214 9.3982 18.111 9.23231V9.23231C19.0161 8.70289 19.3264 7.54349 18.8067 6.63277V6.63277V6.62361Z" stroke="#130D21" stroke-width="1.5" stroke-linecap="round" stroke-linejoin="round"/>
<circle cx="10.175" cy="10.8891" r="2.63616" stroke="#130D21" stroke-width="1.5" stroke-linecap="round" stroke-linejoin="round"/>
</symbol>




</defs>
</svg>
